<?xml version="1.0" standalone="no"?>
<!DOCTYPE svg PUBLIC "-//W3C//DTD SVG 20010904//EN" "http://www.w3.org/TR/2001/REC-SVG-20010904/DTD/svg10.dtd">
<!-- Created using Krita: https://krita.org -->
<svg xmlns="http://www.w3.org/2000/svg" 
    xmlns:xlink="http://www.w3.org/1999/xlink"
    xmlns:krita="http://krita.org/namespaces/svg/krita"
    xmlns:sodipodi="http://sodipodi.sourceforge.net/DTD/sodipodi-0.dtd"
    width="368.64pt"
    height="368.64pt"
    viewBox="0 0 368.64 368.64">
<defs/>
<rect id="shape0" transform="translate(4.9352630071553e-07, 1.06930707488573e-06)" fill="#70232a" fill-rule="evenodd" stroke-opacity="0" stroke="#000000" stroke-width="0" stroke-linecap="square" stroke-linejoin="bevel" width="368.64" height="368.64"/><path id="shape01" transform="translate(1.79999989628814, 292.679979647436)" fill="none" stroke="#312f3c" stroke-width="7.2000036" stroke-linecap="square" stroke-linejoin="bevel" d="M71.64 39.24C58.0147 11.9894 28.6866 0 0 0" sodipodi:nodetypes="cc"/><path id="shape011" transform="translate(-25.0704161796187, 263.339981768166)" fill="none" stroke="#312f3c" stroke-width="7.2000036" stroke-linecap="square" stroke-linejoin="bevel" d="M147.11 73.08C147.11 58.7396 115.223 59.9238 107.15 55.08C91.4651 45.6688 85.7326 27.2256 66.1104 22.32C58.9784 20.537 42.921 20.0716 40.1904 11.88C37.1688 2.81506 22.3463 1.84866 14.9904 1.44C10.2931 1.17904 -3.75413 0 0.950418 0" sodipodi:nodetypes="cccccc"/><path id="shape02" transform="translate(-5.39999962449144, 267.839981374776)" fill="none" stroke="#312f3c" stroke-width="7.2000036" stroke-linecap="square" stroke-linejoin="bevel" d="M25.92 69.84C25.92 54.0341 17.4275 0 0 0" sodipodi:nodetypes="cc"/><circle id="shape03" transform="translate(3.59999999999999, 327.6)" r="18" cx="18" cy="18" fill="#6c1010" fill-rule="evenodd" stroke="#262626" stroke-width="2.16" stroke-linecap="square" stroke-linejoin="bevel"/><circle id="shape012" transform="translate(54, 327.6)" r="18" cx="18" cy="18" fill="#7f7900" fill-rule="evenodd" stroke="#262626" stroke-width="2.16" stroke-linecap="square" stroke-linejoin="bevel"/><circle id="shape021" transform="translate(104.4, 327.6)" r="18" cx="18" cy="18" fill="#277c05" fill-rule="evenodd" stroke="#262626" stroke-width="2.16" stroke-linecap="square" stroke-linejoin="bevel"/><rect id="shape1" transform="translate(585.36, 66.24)" fill="#ffffff" fill-rule="evenodd" stroke="#312f3c" stroke-width="7.2000036" stroke-linecap="square" stroke-linejoin="bevel" width="46.08" height="46.08"/><path id="shape2" transform="translate(16.8238071194682, 24.5699997864298)" fill="none" stroke="#727272" stroke-width="5.4" stroke-linecap="square" stroke-linejoin="bevel" d="M28.5362 0C-27.7553 0 12.9419 84.9185 34.4762 41.85C39.717 31.3684 37.9862 57.707 37.9862 56.97" sodipodi:nodetypes="ccc"/><path id="shape4" transform="translate(96.4941226159373, 36.179999685512)" fill="none" stroke="#727272" stroke-width="5.4" stroke-linecap="square" stroke-linejoin="bevel" d="M2.86588 0C2.86588 0.806289 1.99597 1.85965 1.78588 2.7C0.246724 8.85661 -4.31498 50.3809 11.7759 34.29" sodipodi:nodetypes="ccc"/><path id="shape5" transform="translate(96.2572557918285, 18.8999998357152)" fill="none" stroke="#727272" stroke-width="5.4" stroke-linecap="square" stroke-linejoin="bevel" d="M3.64275 4.32C11.2077 4.32 -4.75956 15.9946 1.48275 3.51C2.17694 2.12162 2.46596 0 4.72275 0" sodipodi:nodetypes="ccc"/><path id="shape6" transform="translate(122.333276759469, 22.6799998028583)" fill="none" stroke="#727272" stroke-width="5.4" stroke-linecap="square" stroke-linejoin="bevel" d="M10.5067 0C-1.3685 0 -7.24846 56.4138 15.3667 50.76C19.5461 49.7152 25.3567 50.8923 25.3567 45.36" sodipodi:nodetypes="ccc"/><path id="shape7" transform="translate(115.829998993169, 46.4399995963288)" fill="none" stroke="#727272" stroke-width="5.4" stroke-linecap="square" stroke-linejoin="bevel" d="M0 7.02C4.71841 2.30159 17.5246 0 23.49 0" sodipodi:nodetypes="cc"/><path id="shape8" transform="translate(163.464886544585, 33.4799997089812)" fill="none" stroke="#727272" stroke-width="5.4" stroke-linecap="square" stroke-linejoin="bevel" d="M23.9151 0C-2.09905 0 -12.5922 45.9287 22.0251 28.62" sodipodi:nodetypes="cc"/><path id="shape9" transform="translate(209.790194367158, 12.4199998920414)" fill="none" stroke="#727272" stroke-width="5.4" stroke-linecap="square" stroke-linejoin="bevel" d="M1.61981 0C-2.3938 4.0136 2.18516 43.3521 3.23981 49.68C3.59491 51.8106 5.39981 56.16 3.23981 56.16C2.49482 56.16 1.61981 49.5882 1.61981 48.87C1.61981 15.8021 25.6498 15.533 25.6498 48.6" sodipodi:nodetypes="ccccc"/><path id="shape3" transform="translate(70.1217391304348, 24.0417391304348)" fill="none" stroke="#727272" stroke-width="5.4" stroke-linecap="square" stroke-linejoin="bevel" d="M0 0C5.81643 0 5.0087 39.8526 5.0087 51.0887" sodipodi:nodetypes="cc"/><path id="shape04" transform="translate(258.389993619933, 20.880003976813)" fill="#262626" fill-rule="evenodd" stroke="#312f3c" stroke-width="7.2000036" stroke-linecap="square" stroke-linejoin="round" d="M0.09 11.52C30.81 11.52 61.53 11.52 92.25 11.52M0.09 0L92.25 0L92.25 46.08L0.09 46.08L0.09 0M0 23.04C30.72 23.04 61.44 23.04 92.16 23.04M0.09 34.56C30.81 34.56 61.53 34.56 92.25 34.56" sodipodi:nodetypes="ccccccccccc"/>
</svg>
