<?xml version="1.0" standalone="no"?>
<!DOCTYPE svg PUBLIC "-//W3C//DTD SVG 20010904//EN" "http://www.w3.org/TR/2001/REC-SVG-20010904/DTD/svg10.dtd">
<!-- Created using Krita: https://krita.org -->
<svg xmlns="http://www.w3.org/2000/svg" 
    xmlns:xlink="http://www.w3.org/1999/xlink"
    xmlns:krita="http://krita.org/namespaces/svg/krita"
    xmlns:sodipodi="http://sodipodi.sourceforge.net/DTD/sodipodi-0.dtd"
    width="288pt"
    height="288pt"
    viewBox="0 0 288 288">
<defs/>
<path id="shape0" transform="translate(59.9999999999999, 59.9999999999999)" fill="none" stroke="#000000" stroke-width="11.88" stroke-linecap="round" stroke-linejoin="round" d="M0 0" sodipodi:nodetypes="c"/><path id="shape1" transform="translate(227.640000013732, 59.9999999999999)" fill="#77b3fe" fill-rule="evenodd" stroke="#000000" stroke-width="11.88" stroke-linecap="round" stroke-linejoin="round" d="M-35.64 -24M0 0" sodipodi:nodetypes="cc"/><path id="shape2" transform="translate(35.9999999999998, 59.9999999999999)" fill="#77b3fe" fill-rule="evenodd" stroke="#000000" stroke-width="11.88" stroke-linecap="round" stroke-linejoin="round" d="M24 0L0 48L108 192C144 144 180 96 216 48C210.666 37.3334 202.666 21.3334 192 4.9738e-14" sodipodi:nodetypes="ccccc"/><path id="shape3" transform="matrix(12 0 0 12 60.0000000000003 59.9999999999998)" fill="#77b3fe" stroke="#000000" stroke-width="1" stroke-linecap="round" stroke-linejoin="round" d="M0 0L3 2L11 2L14 1.06581e-14" sodipodi:nodetypes="cccc"/><path id="shape4" transform="translate(60.1199994983256, 35.977497555358)" fill="#77b3fe" fill-rule="evenodd" stroke="#000000" stroke-width="12.24" stroke-linecap="round" stroke-linejoin="bevel" krita:marker-fill-method="auto" d="M0 24.3225L35.8987 0L131.76 0.0675011L168.21 24.2775" sodipodi:nodetypes="cccc"/><path id="shape5" transform="matrix(12 0 0 12 60.0000000000003 59.9999999999998)" fill="none" stroke="#000000" stroke-width="1" stroke-linecap="round" stroke-linejoin="round" d="M0 0L3 2L11 2L14 1.06581e-14" sodipodi:nodetypes="cccc"/><path id="shape6" transform="matrix(12 0 0 12 84.3599999755383 88.9199939579616)" fill="#93c2fb" stroke="#000000" stroke-width="1" stroke-linecap="round" stroke-linejoin="round" d="M1 0L0 2.91214L5 13.59C6.66667 10.0307 8.33333 6.47143 10 2.91214L9 0" sodipodi:nodetypes="ccccc"/>
</svg>
