<?xml version="1.0" standalone="no"?>
<!DOCTYPE svg PUBLIC "-//W3C//DTD SVG 20010904//EN" "http://www.w3.org/TR/2001/REC-SVG-20010904/DTD/svg10.dtd">
<!-- Created using Krita: https://krita.org -->
<svg xmlns="http://www.w3.org/2000/svg" 
    xmlns:xlink="http://www.w3.org/1999/xlink"
    xmlns:krita="http://krita.org/namespaces/svg/krita"
    xmlns:sodipodi="http://sodipodi.sourceforge.net/DTD/sodipodi-0.dtd"
    width="288pt"
    height="288pt"
    viewBox="0 0 288 288">
<defs/>
<path id="shape0" transform="matrix(12 0 0 12 48 36)" fill="#297f00" stroke="#000000" stroke-width="1" stroke-linecap="round" stroke-linejoin="round" d="M0 5L3 1.5L8 0L13 1.5C14 2.71497 15 3.83846 16 5C16 7.66667 16 10.3333 16 13L13 16.5L8 18L3 16.5L0 13Z" sodipodi:nodetypes="ccccccccccc"/><path id="shape1" transform="matrix(12 0 0 12 84 72)" fill="#59932b" stroke="#000000" stroke-width="1" stroke-linecap="round" stroke-linejoin="round" d="M0 3.5L2 1.5L5 0L8 1.5C8.60999 2.16667 9.33304 2.83333 10 3.5L10 8.6667L8 11L5 12L2 11L0 8.6667Z" sodipodi:nodetypes="ccccccccccc"/><path id="shape2" transform="matrix(12 0 0 12 84 204)" fill="none" stroke="#000000" stroke-width="1" stroke-linecap="round" stroke-linejoin="round" d="M0 2.5L2 0" sodipodi:nodetypes="cc"/><path id="shape3" transform="matrix(12 0 0 12 180 204)" fill="none" stroke="#000000" stroke-width="1" stroke-linecap="round" stroke-linejoin="round" d="M0 0L2 2.5" sodipodi:nodetypes="cc"/><path id="shape4" transform="matrix(12 0 0 12 84 54)" fill="none" stroke="#000000" stroke-width="1" stroke-linecap="round" stroke-linejoin="round" d="M0 0L2 3" sodipodi:nodetypes="cc"/><path id="shape5" transform="matrix(12 0 0 12 180 54)" fill="#297f00" stroke="#000000" stroke-width="1" stroke-linecap="round" stroke-linejoin="round" d="M0 3C0.666667 2.03825 1.33333 1.02058 2 0" sodipodi:nodetypes="cc"/><path id="shape6" transform="matrix(12 0 0 12 48 96)" fill="none" stroke="#000000" stroke-width="1" stroke-linecap="round" stroke-linejoin="round" d="M0 0L3 1.5" sodipodi:nodetypes="cc"/><path id="shape7" transform="matrix(12 0 0 12 144 36)" fill="none" stroke="#000000" stroke-width="1" stroke-linecap="round" stroke-linejoin="round" d="M0 0L0 3" sodipodi:nodetypes="cc"/><path id="shape8" transform="matrix(12 0 0 12 48 174)" fill="none" stroke="#000000" stroke-width="1" stroke-linecap="round" stroke-linejoin="round" d="M0 1.5L3 0" sodipodi:nodetypes="cc"/><path id="shape9" transform="matrix(12 0 0 12 144 216)" fill="none" stroke="#000000" stroke-width="1" stroke-linecap="round" stroke-linejoin="round" d="M0 3L0 0" sodipodi:nodetypes="cc"/><path id="shape10" transform="matrix(12 0 0 12 204 174)" fill="#297f00" stroke="#000000" stroke-width="1" stroke-linecap="round" stroke-linejoin="round" d="M3 1.5L0 0" sodipodi:nodetypes="cc"/><path id="shape11" transform="matrix(12 0 0 12 204 96)" fill="#297f00" stroke="#000000" stroke-width="1" stroke-linecap="round" stroke-linejoin="round" d="M0 1.5C1 1 2 0.5 3 0" sodipodi:nodetypes="cc"/>
</svg>
