<?xml version="1.0" standalone="no"?>
<!DOCTYPE svg PUBLIC "-//W3C//DTD SVG 20010904//EN" "http://www.w3.org/TR/2001/REC-SVG-20010904/DTD/svg10.dtd">
<!-- Created using Krita: https://krita.org -->
<svg xmlns="http://www.w3.org/2000/svg" 
    xmlns:xlink="http://www.w3.org/1999/xlink"
    xmlns:krita="http://krita.org/namespaces/svg/krita"
    xmlns:sodipodi="http://sodipodi.sourceforge.net/DTD/sodipodi-0.dtd"
    width="288pt"
    height="288pt"
    viewBox="0 0 288 288">
<defs/>
<g id="SVGRepo_bgCarrier" transform="matrix(9 0 0 9 0 0)" fill="none"/><g id="SVGRepo_tracerCarrier" transform="matrix(9 0 0 9 0 0)" fill="none"/><path id="shape0" transform="matrix(9 0 0 9 36 17.9635334805862)" fill="#ffff00" stroke="#000000" stroke-width="1" stroke-linecap="butt" stroke-linejoin="miter" stroke-miterlimit="2" d="M25.8 4.20405L22.8 0.304052C22.5 0.00405184 22 -0.0959482 21.6 0.104052L20.4 0.704052C17.5 2.10405 14.3 2.40405 11.2 1.50405C9.9 1.10405 8.5 1.00405 7.2 1.00405L1 1.00405C0.4 1.00405 0 1.40405 0 2.00405L0 13.6041C0 14.2041 0.4 14.6041 1 14.6041L5 14.6041C5.6 14.6041 6 14.2041 6 13.6041C6 12.0041 7.3 10.7041 9 10.7041L11.9 10.7041L10.4 12.5041C6.9 16.7041 4.4 21.5041 3 26.8041C3 27.0041 3 27.4041 3.2 27.6041C3.4 27.8041 3.7 28.0041 4 28.0041L17 28.0041C17.6 28.0041 18 27.6041 18 27.0041C18 21.5041 19.5 16.1041 22.3 11.3041L25.8 5.30405C26.1 5.00405 26 4.60405 25.8 4.20405Z" sodipodi:nodetypes="ccccccccccccccccccccccc"/>
</svg>
