<?xml version="1.0" standalone="no"?>
<!DOCTYPE svg PUBLIC "-//W3C//DTD SVG 20010904//EN" "http://www.w3.org/TR/2001/REC-SVG-20010904/DTD/svg10.dtd">
<!-- Created using Krita: https://krita.org -->
<svg xmlns="http://www.w3.org/2000/svg" 
    xmlns:xlink="http://www.w3.org/1999/xlink"
    xmlns:krita="http://krita.org/namespaces/svg/krita"
    xmlns:sodipodi="http://sodipodi.sourceforge.net/DTD/sodipodi-0.dtd"
    width="288pt"
    height="288pt"
    viewBox="0 0 288 288">
<defs/>
<path id="shape0" transform="matrix(0.579185520361991 0 0 0.579185520361991 63.540705882353 24.0014479638009)" fill="#f6f5f4" stroke="#010002" stroke-width="10.8" stroke-linecap="round" stroke-linejoin="round" d="M255.624 0L22.216 0C9.946 0 0 9.946 0 22.216L0 392.156C0 404.427 9.946 414.373 22.216 414.373L255.624 414.373C267.894 414.373 277.839 404.428 277.839 392.156L277.839 22.216C277.839 9.947 267.894 0 255.624 0Z" sodipodi:nodetypes="ccccccccc"/><path id="shape01" transform="matrix(0.249833961536896 0 0 0.249823730813026 86.0099999999999 80.9149999999999)" fill="#262626" stroke="#000000" stroke-width="21.6" stroke-linecap="square" stroke-linejoin="round" d="M240.9 6.388C237.728 2.834 238.279 3.162 238.279 3.162C236.656 1.157 234.322 0 231.87 0C229.419 0 227.094 1.157 225.471 3.162C225.471 3.162 226.034 2.834 222.85 6.388C144.474 94.813 0 144.899 0 272.182C0 278.719 0.287 285.532 0.881 292.62C7.194 367.346 61.366 409.738 119.898 409.738C153.122 409.738 184.691 387.592 205.797 355.483C195.896 417.559 183.195 486.448 179.629 495.001C173.548 509.57 180.839 512.001 184.479 512.001L279.27 512.001C282.91 512.001 290.189 509.57 284.119 495.001C280.564 486.448 267.841 417.559 257.963 355.483C279.058 387.592 310.626 409.738 343.851 409.738C402.394 409.738 456.554 367.346 462.879 292.62C463.472 285.532 463.748 278.719 463.748 272.182C463.75 144.899 319.276 94.813 240.9 6.388Z" sodipodi:nodetypes="cccccccccccccccccc"/>
</svg>
