<?xml version="1.0" standalone="no"?>
<!DOCTYPE svg PUBLIC "-//W3C//DTD SVG 20010904//EN" "http://www.w3.org/TR/2001/REC-SVG-20010904/DTD/svg10.dtd">
<!-- Created using Krita: https://krita.org -->
<svg xmlns="http://www.w3.org/2000/svg" 
    xmlns:xlink="http://www.w3.org/1999/xlink"
    xmlns:krita="http://krita.org/namespaces/svg/krita"
    xmlns:sodipodi="http://sodipodi.sourceforge.net/DTD/sodipodi-0.dtd"
    width="233.28pt"
    height="55.44pt"
    viewBox="0 0 233.28 55.44">
<defs/>
<path id="shape0" transform="translate(3.77999985449021, 2.03182363718727)" fill="none" stroke="#ffffff" stroke-width="5.76" stroke-linecap="square" stroke-linejoin="bevel" d="M0 36.1732C0 49.2874 25.1581 57.3169 32.265 43.1032C44.7468 18.1396 -8.07593 29.9151 2.79 8.18318C8.61526 -3.46735 32.985 -3.67622 32.985 14.0782" sodipodi:nodetypes="cccc"/><path id="shape1" transform="translate(50.4899980564049, 3.77999985449021)" fill="none" stroke="#ffffff" stroke-width="5.76" stroke-linecap="square" stroke-linejoin="miter" stroke-miterlimit="2" d="M0 0L34.83 0.135" sodipodi:nodetypes="cc"/><path id="shape2" transform="translate(67.6349973964141, 4.31999983370309)" fill="none" stroke="#ffffff" stroke-width="5.76" stroke-linecap="square" stroke-linejoin="miter" stroke-miterlimit="2" d="M0.405 0L0 46.845" sodipodi:nodetypes="cc"/><path id="shape3" transform="translate(96.6599962791067, 4.45499982850631)" fill="none" stroke="#ffffff" stroke-width="5.76" stroke-linecap="square" stroke-linejoin="miter" stroke-miterlimit="2" d="M0 45.495L16.875 0" sodipodi:nodetypes="cc"/><path id="shape4" transform="translate(116.50499551518, 4.58999982330953)" fill="none" stroke="#ffffff" stroke-width="5.76" stroke-linecap="square" stroke-linejoin="miter" stroke-miterlimit="2" d="M16.47 44.82L0 0" sodipodi:nodetypes="cc"/><path id="shape5" transform="translate(104.219995988087, 34.2899986800183)" fill="none" stroke="#ffffff" stroke-width="5.76" stroke-linecap="square" stroke-linejoin="miter" stroke-miterlimit="2" d="M0 0L22.815 0" sodipodi:nodetypes="cc"/><path id="shape6" transform="translate(147.824989904, 4.58999968651689)" fill="none" stroke="#ffffff" stroke-width="5.76" stroke-linecap="square" stroke-linejoin="miter" stroke-miterlimit="2" d="M0.135 45.765L0 0" sodipodi:nodetypes="cc"/><path id="shape7" transform="translate(148.364989867119, 28.079998082221)" fill="none" stroke="#ffffff" stroke-width="5.76" stroke-linecap="square" stroke-linejoin="miter" stroke-miterlimit="2" d="M0 0.135L24.705 0" sodipodi:nodetypes="cc"/><path id="shape8" transform="translate(148.364989867119, 3.77999974183744)" fill="none" stroke="#ffffff" stroke-width="5.76" stroke-linecap="square" stroke-linejoin="miter" stroke-miterlimit="2" d="M0 0L23.355 0.405" sodipodi:nodetypes="cc"/><path id="shape9" transform="translate(171.719988272044, 4.18499971417716)" fill="none" stroke="#ffffff" stroke-width="5.76" stroke-linecap="square" stroke-linejoin="bevel" d="M1.35 23.895C10.1924 23.895 10.0991 2.52478 0 0" sodipodi:nodetypes="cc"/><path id="shape10" transform="translate(173.069988179843, 27.9143256616543)" fill="none" stroke="#ffffff" stroke-width="5.76" stroke-linecap="square" stroke-linejoin="bevel" d="M0 0.165672C0.67712 -0.962862 4.15589 3.99685 5.13 5.29567C10.5 12.4557 5.93728 17.4402 8.64 22.8457" sodipodi:nodetypes="ccc"/><path id="shape01" transform="translate(194.882388605811, 3.62790035951654)" fill="none" stroke="#ffffff" stroke-width="5.76" stroke-linecap="square" stroke-linejoin="miter" stroke-miterlimit="2" d="M0 0L34.83 0.135" sodipodi:nodetypes="cc"/><path id="shape11" transform="translate(212.02738794582, 4.16790033872942)" fill="none" stroke="#ffffff" stroke-width="5.76" stroke-linecap="square" stroke-linejoin="miter" stroke-miterlimit="2" d="M0.405 0L0 46.845" sodipodi:nodetypes="cc"/>
</svg>
