<?xml version="1.0" standalone="no"?>
<!DOCTYPE svg PUBLIC "-//W3C//DTD SVG 20010904//EN" "http://www.w3.org/TR/2001/REC-SVG-20010904/DTD/svg10.dtd">
<!-- Created using Krita: https://krita.org -->
<svg xmlns="http://www.w3.org/2000/svg" 
    xmlns:xlink="http://www.w3.org/1999/xlink"
    xmlns:krita="http://krita.org/namespaces/svg/krita"
    xmlns:sodipodi="http://sodipodi.sourceforge.net/DTD/sodipodi-0.dtd"
    width="288pt"
    height="288pt"
    viewBox="0 0 288 288">
<defs/>
<g id="SVGRepo_bgCarrier" transform="matrix(12 0 0 12 0 0)" fill="none"/><g id="SVGRepo_tracerCarrier" transform="matrix(12 0 0 12 0 0)" fill="none"/><path id="shape0" transform="matrix(12 0 0 12 36 36)" fill="#ff7f00" stroke="#000000" stroke-width="1" stroke-linecap="round" stroke-linejoin="round" d="M15 5.5C12.5 1.5 9 0 9 0C9 0 5.5 1.5 3 5.5C0.5 9.5 0 14 0 14C0 14 4 16 9 16C14 16 18 14 18 14C18 14 17.5 9.5 15 5.5Z" sodipodi:nodetypes="ccccccc"/><path id="shape1" transform="matrix(12 0 0 12 84 84)" fill="#fea711" stroke="#000000" stroke-width="1" stroke-linecap="round" stroke-linejoin="round" d="M8.3333 3.0938C6.9444 0.84375 5 0 5 0C5 0 3.0556 0.84375 1.66667 3.0938C0.27778 5.3438 0 7.875 0 7.875C0 7.875 2.22222 9 5 9C7.7778 9 10 7.875 10 7.875C10 7.875 9.7222 5.3438 8.3333 3.0938Z" sodipodi:nodetypes="ccccccc"/><path id="shape2" transform="matrix(12 0 0 12 36 180)" fill="none" stroke="#000000" stroke-width="1" stroke-linecap="round" stroke-linejoin="round" d="M0 2L4 0" sodipodi:nodetypes="cc"/><path id="shape3" transform="matrix(12 0 0 12 204 180)" fill="none" stroke="#000000" stroke-width="1" stroke-linecap="round" stroke-linejoin="round" d="M0 0L4 2" sodipodi:nodetypes="cc"/><path id="shape4" transform="matrix(12 0 0 12 144 36)" fill="none" stroke="#000000" stroke-width="1" stroke-linecap="round" stroke-linejoin="round" d="M0 4L0 0" sodipodi:nodetypes="cc"/>
</svg>
